PathFileType	4	(X/Y/Z)	41_2_41_p0_0-287.trc
DataRate	CameraRate	NumFrames	NumMarkers	Units	OrigDataRate	OrigDataStartFrame	OrigNumFrames
59.0	59.0	6	27	m	59.0	108	288
Frame#	Time	RHip			RKnee			RAnkle			RBigToe			RSmallToe			RHeel			LHip			LKnee			LAnkle			LBigToe			LSmallToe			LHeel			Neck			Head			Nose			RShoulder			RElbow			RWrist			RThumb			RIndex			RPinky			LShoulder			LElbow			LWrist			LThumb			LIndex			LPinky			
		X1	Y1	Z1	X2	Y2	Z2	X3	Y3	Z3	X4	Y4	Z4	X5	Y5	Z5	X6	Y6	Z6	X7	Y7	Z7	X8	Y8	Z8	X9	Y9	Z9	X10	Y10	Z10	X11	Y11	Z11	X12	Y12	Z12	X13	Y13	Z13	X14	Y14	Z14	X15	Y15	Z15	X16	Y16	Z16	X17	Y17	Z17	X18	Y18	Z18	X19	Y19	Z19	X20	Y20	Z20	X21	Y21	Z21	X22	Y22	Z22	X23	Y23	Z23	X24	Y24	Z24	X25	Y25	Z25	X26	Y26	Z26	X27	Y27	Z27	
108	1.8305084745762712	0.3952602405883423	0.5552125687379886	-0.0194888726509726	0.40060812650148375	0.6577704413342753	0.38958777547624035	0.381728803964278	0.7174706791212233	0.7330810355043805	0.36128146522200283	0.5358655851064075	0.7503433918009933	0.4266909416369978	0.5497823321497336	0.7503162381322794	0.3629709929096434	0.8069431647292264	0.7924105953654413	0.20068016461498642	0.5604792481906657	-0.009473435899801645	0.18172293969111328	0.6569031839438795	0.3842931975446168	0.17534406867823707	0.713038627084243	0.734624314719954	0.18412545619140944	0.49934221945981555	0.7280434113363683	0.1370879412848019	0.5829065194547898	0.7567616687201361	0.19367133522625066	0.7425615859604452	0.7784975701918542	0.2573797988019451	0.5423310243533559	-0.5726123028925093	0.2209451528775408	0.5579181907503461	-0.8019335485595922	0.20993373530458767	0.4290448008046631	-0.6910895394967305	0.4056440057505684	0.5170016636962966	-0.4707194811764599	0.46690103884113904	0.4458339088149886	-0.251830692283729	0.3572893964771271	0.2998901433699947	-0.1546759021349601	0.2463128774809818	0.3017382347083174	-0.12276157261582346	0.2308086722569258	0.30798528737343844	-0.0947454730908708	0.2805013475826984	0.2959344518855166	-0.06071827708117671	0.1137098757636617	0.5679458785651333	-0.45910340866513843	0.10434297784344733	0.5245465407459599	-0.25111119004486676	0.18601233291253075	0.36320950928848167	-0.13989596152017517	0.23869509927391058	0.326859731635493	-0.12489102698483287	0.24649151563830016	0.27934280181405013	-0.11360065161074757	0.24093066788663814	0.29353160505395426	-0.06583468936157774
109	1.847457627118644	0.3976604601871057	0.5302498972352219	-0.030419258242324887	0.40085640965543196	0.6580070609138328	0.38100831299727517	0.37347641374291735	0.7337113860564616	0.7414765019100213	0.36114111943540883	0.5354579991773869	0.7502639436018601	0.4263814408086432	0.5493641078542955	0.7502953619226893	0.3629067010732309	0.8069343266574621	0.7926877791807633	0.20832665496913153	0.5488353644545624	-0.01700115500343306	0.18166753668199973	0.6568814173590145	0.38420086282248983	0.17450143144660824	0.7139649054341387	0.739312892669059	0.18417880957696242	0.4995376109219782	0.7279890942409668	0.13715300492567734	0.5826940977946129	0.7565744667678076	0.19392510120830267	0.7435084733290662	0.7788905628177721	0.2607798011317665	0.5292362718217435	-0.5738452726052617	0.22097061490138697	0.5574602905892251	-0.8020469003646845	0.20994388136627412	0.4290836030842946	-0.6910148533200491	0.4056023143681464	0.5170184476614816	-0.47074275968997953	0.46688539136723795	0.44596943849941834	-0.2517772039319901	0.35635069803621283	0.29910601981522195	-0.15845998142771262	0.2461175150552908	0.30177986104756616	-0.12274769806373247	0.2306149544226992	0.3078926646407684	-0.09463281061051192	0.27628246319049665	0.29478653575279895	-0.061043882570092654	0.11395304474286423	0.5681127386096392	-0.4625314047505814	0.10445005614009416	0.5244894444734	-0.2511504503536434	0.18255586531183396	0.3753582064843724	-0.14008342060845108	0.2351336613304885	0.31568937555685617	-0.12736511835763123	0.24323877359816012	0.2918493402708171	-0.11014482634375487	0.2378832845610159	0.3054459432257103	-0.06512576023285298
110	1.8644067796610169	0.39329645033743765	0.5286267506879924	-0.030538673886226678	0.40094226804373323	0.657526555038731	0.38023900369793345	0.3817007255755828	0.7176235025561173	0.7331664986741702	0.36107387809813907	0.5352975518027338	0.7504451475133088	0.4263065908183303	0.549343360550428	0.7503634458678659	0.362904332872285	0.8070292065159098	0.792630468275415	0.2083343752269356	0.5487241182471765	-0.017015941136962278	0.18236008174326193	0.6563700236697708	0.3802356713556801	0.17535980486844654	0.7130660027792328	0.7344736010859999	0.18498229124248236	0.49865332140334856	0.7240849729565492	0.13709124862841252	0.5826578188586028	0.7565784242990464	0.19380022284277898	0.743268912283223	0.7787653595828594	0.26074215243848003	0.5292261638245798	-0.5707621450264296	0.22477032562490298	0.5694298071300882	-0.8022682158042176	0.21333384702516994	0.4173507258217979	-0.6915593111915601	0.40173163776928006	0.516386363195197	-0.47051879982984307	0.46682800992359996	0.4461137445282505	-0.2517364792285359	0.3524164449087588	0.2983390847069144	-0.158507290582943	0.2461002589544776	0.30192330246487864	-0.1229149878403638	0.2304414866460493	0.3077886117657521	-0.09473075819712576	0.26751021802348646	0.2816313444732986	-0.06761853511359513	0.1137074189462486	0.5684225712992451	-0.46624328283283545	0.10479753790341434	0.5260688660980777	-0.24712410541821986	0.18305802488715278	0.37641590635561895	-0.13563052550315177	0.23153201136066917	0.32755652560482773	-0.12444392592916458	0.2429719232304779	0.29180704381144856	-0.11035604707941424	0.23735968341882158	0.3057485931073699	-0.06226227535381817
111	1.88135593220339	0.39356159557670994	0.5277370274330387	-0.02666122686336942	0.40114281900407517	0.6561686454386864	0.3844658318177634	0.3816590409994313	0.7172737301647534	0.7330546983778956	0.36114417601169596	0.5354959937465966	0.7504173456591232	0.42645615838734585	0.5499491480572516	0.7506581033615096	0.36288058438192894	0.806845010434564	0.7925849609151837	0.20421423587688167	0.5476221981007902	-0.017238885259475395	0.17779042492585437	0.6559916329233095	0.3803412213244067	0.1734132227888433	0.711977185658939	0.7336004556599184	0.18409934741533898	0.4992922221531413	0.7279830130603099	0.13705997691060132	0.582512610733634	0.7565160777690242	0.19396379549123938	0.7438938537804674	0.7790356886212767	0.2607792519695392	0.5292771524282868	-0.5705476260524773	0.2248027272375374	0.5694373814934199	-0.8021396520261975	0.2098021378062333	0.4292054139943962	-0.687614404187341	0.40170762929295956	0.5163738960386096	-0.47050681658880195	0.4668974936953667	0.44641002657459045	-0.25173106306118825	0.3525500564460342	0.29759420757199995	-0.15520986176836615	0.24283575069664132	0.3145970411948084	-0.11963350245156665	0.22646495215580492	0.31968414761459185	-0.09435380166206565	0.2629608604854994	0.2802021282754533	-0.0640019435458723	0.11353417336403904	0.5684176508713211	-0.46282714682738746	0.10460395189407717	0.5257986469853551	-0.24736016274860603	0.18209576888639697	0.3647160318980304	-0.13877314223811746	0.22802402058146887	0.3155563791425912	-0.1273929342300099	0.23897230654252496	0.27986846512738367	-0.11669374894540718	0.23734094144287926	0.30522934946744695	-0.06238250415785152
112	1.8983050847457628	0.39345149537950264	0.5276193028308432	-0.026790622738864497	0.4010592441937183	0.6558953924025505	0.38418766513153474	0.38169085726352775	0.7173753929059175	0.7330505029669397	0.36124730627345897	0.5356146091149444	0.7503547295981298	0.4266668117119235	0.5497770168779809	0.7503508159112615	0.3628939745168318	0.8068734594190403	0.7925684179437162	0.20418136772211726	0.547734998047934	-0.017357625027394987	0.177091494889879	0.6563305958121708	0.3841972928336399	0.17337478970629241	0.7120276687797285	0.7336375477586461	0.1840468247928143	0.4994386809610124	0.7281056556801317	0.13689298578306647	0.5830382783016329	0.7569077489916755	0.1938101177208719	0.7438388569940929	0.7791840919605966	0.2610065758518249	0.529553558111063	-0.5735625307028069	0.22847439178871165	0.5561815157795444	-0.8023203163645319	0.20984700367603598	0.42924798827504984	-0.690756689374258	0.4017839341856711	0.5164586868239923	-0.47040352993001977	0.47126045413224643	0.45733044651509747	-0.24970858427907944	0.34941216571206724	0.3101001987915219	-0.15192150137624383	0.23462903458105797	0.30156603320419734	-0.1260281682247557	0.22213937551654353	0.3079982369903015	-0.10051083663076092	0.2562435429425409	0.28055640343753374	-0.06707523719454174	0.11694145887931315	0.5814866494220289	-0.461564261120674	0.10443368941775047	0.5254391248472404	-0.2474178490492592	0.17401477840198623	0.38830602224154825	-0.14039914880731316	0.22401117428390888	0.3151312524504963	-0.13026455265357795	0.23139645783556717	0.2907829137202312	-0.11361179635712572	0.22997587751893667	0.32961258462046017	-0.05964358261810143
113	1.9152542372881356	0.39039939567208665	0.5422951931161855	-0.02271269901940308	0.4009608011378404	0.6564546358177279	0.38463722955968	0.38174719240834043	0.7309816711616256	0.7397961067415051	0.35997582898286756	0.533671448055064	0.7451282486171092	0.4261178964351836	0.5496369637033565	0.750544154953097	0.3660955319606688	0.818339669896118	0.8039816397652699	0.20018161537949478	0.5612135903540404	-0.013278079540971635	0.17775123721048158	0.6560350267797802	0.3799708456045229	0.17418927166797873	0.7113345750990326	0.7288858003607696	0.1804545399118874	0.5136797188498046	0.73568904931734	0.13702462101310411	0.583125913438889	0.7569274047721428	0.19404736734204045	0.7448322736708062	0.7795171117696004	0.26112026600745436	0.529564522586965	-0.5735700385769007	0.23276343857809584	0.5567372403535165	-0.8027465865954587	0.20986790684243034	0.4293044155876313	-0.6907445841530673	0.40652513590914086	0.5177642046099816	-0.4632529948361933	0.46684276589655227	0.4463204381099596	-0.25150918813031686	0.34908105203250417	0.31045481919603185	-0.1515902652921498	0.23413519131716787	0.30231687946386876	-0.13013998340873786	0.22171877589262667	0.30855892698835713	-0.10434853502854748	0.2561433730321653	0.2813186979321975	-0.06654968097045133	0.11715829648377253	0.5815287280047683	-0.4651268685759587	0.10014074667250623	0.5386293588798169	-0.24500812261748142	0.17432043381337686	0.38828179365704424	-0.14387469321105914	0.22300227293574446	0.3151364904013735	-0.13799935644793265	0.2314038551686622	0.29100858850047384	-0.11366797808954278	0.22948451282681298	0.3317462856748473	-0.06347848466672573
